<svg width="49" height="49" viewBox="0 0 49 49" fill="none" xmlns="http://www.w3.org/2000/svg">
<path d="M11.6517 26.7734C12.1322 26.6054 12.6587 26.627 13.1238 26.8337C13.589 27.0404 13.9578 27.4167 14.1552 27.8859C14.3525 28.3551 14.3636 28.8819 14.1861 29.3589C14.0085 29.8359 13.6558 30.2274 13.1997 30.4534L12.9837 30.5454C12.3586 30.7664 11.7982 31.1393 11.3528 31.6305C10.9075 32.1218 10.5912 32.716 10.4323 33.3597C10.2735 34.0035 10.2771 34.6766 10.4428 35.3186C10.6085 35.9606 10.9311 36.5514 11.3817 37.0379C11.8322 37.5243 12.3966 37.8912 13.024 38.1056C13.6515 38.3199 14.3224 38.375 14.9764 38.2659C15.6304 38.1568 16.2471 37.8869 16.771 37.4804C17.2948 37.074 17.7095 36.5438 17.9777 35.9374L18.0917 35.6514C18.1736 35.3968 18.3058 35.1613 18.4803 34.9586C18.6548 34.756 18.8682 34.5905 19.1078 34.4717C19.3474 34.353 19.6084 34.2836 19.8754 34.2675C20.1423 34.2514 20.4098 34.289 20.6619 34.3781C20.914 34.4672 21.1458 34.606 21.3434 34.7862C21.5409 34.9664 21.7004 35.1844 21.8122 35.4273C21.9241 35.6702 21.9861 35.933 21.9946 36.2003C22.0031 36.4676 21.9579 36.7339 21.8617 36.9834C21.4115 38.2582 20.6456 39.3981 19.6356 40.2968C18.6256 41.1955 17.4043 41.8237 16.0858 42.1226C14.7673 42.4215 13.3945 42.3815 12.0957 42.0063C10.7968 41.6311 9.61417 40.9329 8.65818 39.9769C7.7022 39.0209 7.00401 37.8383 6.6288 36.5395C6.25358 35.2406 6.21358 33.8678 6.51251 32.5493C6.81145 31.2308 7.43958 30.0095 8.33828 28.9995C9.23697 27.9895 10.3769 27.2236 11.6517 26.7734ZM36.9837 26.7734C38.2585 27.2236 39.3985 27.9895 40.2972 28.9995C41.1959 30.0095 41.824 31.2308 42.123 32.5493C42.4219 33.8678 42.3819 35.2406 42.0067 36.5395C41.6315 37.8383 40.9333 39.0209 39.9773 39.9769C39.0213 40.9329 37.8387 41.6311 36.5398 42.0063C35.2409 42.3815 33.8682 42.4215 32.5497 42.1226C31.2312 41.8237 30.0099 41.1955 28.9999 40.2968C27.9898 39.3981 27.224 38.2582 26.7737 36.9834C26.6058 36.5029 26.6274 35.9764 26.8341 35.5113C27.0408 35.0461 27.4171 34.6773 27.8862 34.48C28.3554 34.2826 28.8822 34.2715 29.3593 34.4491C29.8363 34.6266 30.2277 34.9793 30.4537 35.4354L30.5457 35.6514C30.7668 36.2765 31.1397 36.8369 31.6309 37.2823C32.1221 37.7276 32.7163 38.0439 33.3601 38.2028C34.0038 38.3616 34.677 38.358 35.319 38.1923C35.961 38.0266 36.5518 37.704 37.0382 37.2535C37.5247 36.8029 37.8916 36.2385 38.1059 35.6111C38.3203 34.9836 38.3754 34.3127 38.2663 33.6587C38.1572 33.0047 37.8872 32.388 37.4808 31.8642C37.0744 31.3403 36.5441 30.9256 35.9377 30.6574L35.6517 30.5454C35.4041 30.4579 35.176 30.3225 34.9807 30.147C34.7853 29.9714 34.6265 29.759 34.5132 29.5221C34.2844 29.0435 34.2551 28.4936 34.4317 27.9934C34.6084 27.4932 34.9765 27.0836 35.4551 26.8548C35.9337 26.6261 36.4835 26.5967 36.9837 26.7734ZM16.3397 13.5974L16.5457 13.7374L21.8617 17.8734C22.5178 18.3838 23.3166 18.6771 24.1471 18.7126C24.9776 18.7481 25.7985 18.524 26.4957 18.0714L26.7737 17.8734L32.0897 13.7394C32.4575 13.453 32.9138 13.304 33.3797 13.3182C33.8456 13.3325 34.2919 13.509 34.6415 13.8173C34.9911 14.1257 35.222 14.5464 35.2944 15.0069C35.3667 15.4674 35.276 15.9387 35.0377 16.3394L34.8977 16.5454L30.7617 21.8614C30.2513 22.5175 29.958 23.3163 29.9225 24.1468C29.887 24.9772 30.1112 25.7982 30.5637 26.4954L30.7617 26.7734L34.8957 32.0894C35.1822 32.4571 35.3311 32.9134 35.3169 33.3793C35.3026 33.8453 35.1261 34.2916 34.8178 34.6412C34.5095 34.9908 34.0887 35.2217 33.6282 35.294C33.1677 35.3664 32.6964 35.2756 32.2957 35.0374L32.0897 34.8974L26.7737 30.7614C26.1176 30.251 25.3188 29.9576 24.4884 29.9222C23.6579 29.8867 22.837 30.1108 22.1397 30.5634L21.8617 30.7614L16.5457 34.8954C16.178 35.1818 15.7217 35.3308 15.2558 35.3165C14.7899 35.3023 14.3435 35.1258 13.9939 34.8174C13.6443 34.5091 13.4134 34.0883 13.3411 33.6278C13.2687 33.1674 13.3595 32.6961 13.5977 32.2954L13.7377 32.0894L17.8737 26.7734C18.3841 26.1173 18.6775 25.3185 18.713 24.488C18.7484 23.6575 18.5243 22.8366 18.0717 22.1394L17.8737 21.8614L13.7397 16.5454C13.4657 16.1941 13.3169 15.7614 13.3168 15.3159C13.3166 14.8704 13.4653 14.4376 13.7391 14.0862C14.0129 13.7348 14.3962 13.4848 14.8281 13.376C15.2601 13.2671 15.7161 13.3056 16.1237 13.4854L16.3397 13.5974ZM34.3177 6.31738C36.2056 6.31652 38.033 6.98333 39.4766 8.19988C40.9202 9.41643 41.8871 11.1043 42.2063 12.965C42.5254 14.8257 42.1762 16.7393 41.2205 18.3674C40.2647 19.9955 38.764 21.2331 36.9837 21.8614C36.5032 22.0293 35.9768 22.0077 35.5116 21.801C35.0465 21.5943 34.6777 21.2181 34.4803 20.7489C34.2829 20.2797 34.2719 19.7529 34.4494 19.2759C34.6269 18.7988 34.9797 18.4074 35.4357 18.1814L35.6517 18.0894C36.2769 17.8684 36.8373 17.4955 37.2826 17.0042C37.728 16.513 38.0443 15.9188 38.2031 15.275C38.362 14.6313 38.3584 13.9582 38.1927 13.3161C38.027 12.6741 37.7044 12.0833 37.2538 11.5969C36.8032 11.1104 36.2389 10.7435 35.6114 10.5292C34.984 10.3148 34.3131 10.2597 33.6591 10.3688C33.0051 10.478 32.3884 10.7479 31.8645 11.1543C31.3406 11.5608 30.926 12.091 30.6577 12.6974L30.5457 12.9834C30.3691 13.4836 30.001 13.8931 29.5224 14.1219C29.0438 14.3507 28.4939 14.38 27.9937 14.2034C27.4935 14.0267 27.084 13.6586 26.8552 13.1801C26.6264 12.7015 26.5971 12.1516 26.7737 11.6514C27.3252 10.0913 28.3468 8.74053 29.6979 7.78524C31.049 6.82995 32.663 6.31712 34.3177 6.31738ZM14.3177 6.31738C15.9724 6.31712 17.5865 6.82995 18.9376 7.78524C20.2887 8.74053 21.3103 10.0913 21.8617 11.6514C22.0297 12.1319 22.0081 12.6583 21.8014 13.1235C21.5947 13.5886 21.2184 13.9574 20.7492 14.1548C20.28 14.3522 19.7533 14.3632 19.2762 14.1857C18.7992 14.0082 18.4078 13.6555 18.1817 13.1994L18.0897 12.9834C17.8687 12.3583 17.4958 11.7978 17.0046 11.3525C16.5133 10.9071 15.9191 10.5908 15.2754 10.432C14.6316 10.2731 13.9585 10.2767 13.3165 10.4424C12.6745 10.6081 12.0837 10.9308 11.5972 11.3813C11.1108 11.8319 10.7439 12.3962 10.5295 13.0237C10.3152 13.6511 10.2601 14.322 10.3692 14.976C10.4783 15.6301 10.7482 16.2467 11.1547 16.7706C11.5611 17.2945 12.0914 17.7092 12.6977 17.9774L12.9837 18.0914C13.4695 18.2787 13.8631 18.648 14.0808 19.1209C14.2986 19.5937 14.3234 20.1329 14.15 20.6238C13.9766 21.1146 13.6186 21.5185 13.1521 21.7496C12.6856 21.9807 12.1473 22.0208 11.6517 21.8614C9.87383 21.231 8.37576 19.9929 7.42198 18.3654C6.46819 16.738 6.12 14.8259 6.43888 12.9667C6.75776 11.1075 7.72319 9.42071 9.16477 8.2041C10.6064 6.98749 12.4314 6.31927 14.3177 6.31738Z" fill="white"/>
</svg>
