<svg width="49" height="49" viewBox="0 0 49 49" fill="none" xmlns="http://www.w3.org/2000/svg">
<path d="M4.06072 31.1847L3.61915 30.4225C3.47132 30.1666 3.37534 29.8841 3.3367 29.5912C3.29806 29.2982 3.31751 29.0004 3.39395 28.715C3.47039 28.4295 3.60231 28.1619 3.78218 27.9274C3.96206 27.693 4.18636 27.4962 4.44228 27.3485L12.5863 22.6544C12.7571 22.5554 12.9457 22.4911 13.1413 22.4652C13.337 22.4392 13.5358 22.4521 13.7265 22.5032C13.9171 22.5542 14.0958 22.6424 14.2523 22.7626C14.4088 22.8828 14.5401 23.0327 14.6385 23.2038L15.8301 25.2663C16.0288 25.6108 16.0825 26.0201 15.9795 26.4042C15.8765 26.7884 15.6251 27.1159 15.2807 27.3147L7.13853 32.0088C6.62094 32.3069 6.00623 32.3876 5.42923 32.2331C4.85224 32.0786 4.36008 31.7016 4.06072 31.1847Z" stroke="white" stroke-width="3" stroke-linecap="round" stroke-linejoin="round"/>
<path d="M12.2783 45.4751L21.2914 25.9761M25.798 24.477L34.8683 42.4751M16.318 26.1364L14.1093 22.3189C13.8111 21.8019 13.7306 21.1878 13.8853 20.6114C14.04 20.0351 14.4173 19.5439 14.9343 19.2457L26.6024 12.5192C26.7731 12.4202 26.9617 12.3559 27.1574 12.33C27.353 12.304 27.5519 12.3169 27.7425 12.368C27.9331 12.419 28.1118 12.5071 28.2683 12.6274C28.4249 12.7476 28.5561 12.8975 28.6546 13.0686L31.6143 18.1864C31.8128 18.5306 31.8667 18.9395 31.764 19.3234C31.6614 19.7072 31.4106 20.0347 31.0668 20.2339L19.3958 26.9595C19.1398 27.1079 18.857 27.2044 18.5636 27.2433C18.2702 27.2823 17.972 27.263 17.6861 27.1865C17.4002 27.11 17.1322 26.9779 16.8975 26.7977C16.6627 26.6175 16.4658 26.3928 16.318 26.1364ZM32.3652 19.4323L28.0049 11.892C27.7068 11.3751 27.6262 10.7609 27.7809 10.1846C27.9356 9.60825 28.313 9.11699 28.8299 8.81887L37.5758 3.77699C38.0934 3.47871 38.7082 3.39786 39.2853 3.55216C39.8625 3.70646 40.3549 4.08332 40.6546 4.60012L45.0149 12.1404C45.1626 12.3964 45.2585 12.679 45.297 12.9721C45.3355 13.2651 45.3159 13.5629 45.2393 13.8484C45.1627 14.1339 45.0306 14.4014 44.8505 14.6358C44.6704 14.8702 44.446 15.0669 44.1899 15.2145L35.4439 20.2564C34.9263 20.5548 34.3113 20.6357 33.7341 20.4812C33.1569 20.3267 32.6646 19.9494 32.3652 19.4323Z" stroke="white" stroke-width="3" stroke-linecap="round" stroke-linejoin="round"/>
</svg>
