<svg width="49" height="49" viewBox="0 0 49 49" fill="none" xmlns="http://www.w3.org/2000/svg">
<path d="M12.9521 35.3602L8.95215 33.1602V28.1602M8.95215 20.1602V15.1602M8.95215 15.1602L12.9521 12.9602M8.95215 15.1602L12.9521 17.3602M20.9521 8.36016L24.9521 6.16016L28.9521 8.36016M36.9521 12.9602L40.9521 15.1602M40.9521 15.1602V20.1602M40.9521 15.1602L36.9521 17.3602M40.9521 28.1602V33.1602L36.9521 35.4002M28.9521 39.9602L24.9521 42.1602M24.9521 42.1602L20.9521 39.9602M24.9521 42.1602V37.1602M24.9521 24.1602L28.9521 21.9602M24.9521 24.1602V29.1602M24.9521 24.1602L20.9521 21.9202" stroke="white" stroke-width="3" stroke-linecap="round" stroke-linejoin="round"/>
</svg>
