<svg width="49" height="49" viewBox="0 0 49 49" fill="none" xmlns="http://www.w3.org/2000/svg">
<path d="M13.1894 16.3174C12.6069 18.0765 12.3124 19.9183 12.3174 21.7714C12.3174 29.8054 17.6894 36.3174 24.3174 36.3174M24.3174 36.3174C30.9454 36.3174 36.3174 29.8054 36.3174 21.7714C36.3225 19.9183 36.028 18.0765 35.4454 16.3174M24.3174 36.3174C27.9534 36.3174 29.3174 42.3174 29.3174 42.3174M24.3174 36.3174C20.6814 36.3174 19.3174 42.3174 19.3174 42.3174M37.3574 10.7774C37.9414 14.1094 35.3174 16.3174 35.3174 16.3174C35.3174 16.3174 32.1114 15.1914 31.5274 11.8574C30.9434 8.52538 33.5674 6.31738 33.5674 6.31738C33.5674 6.31738 36.7734 7.44338 37.3574 10.7774Z" stroke="white" stroke-width="3" stroke-linecap="round" stroke-linejoin="round"/>
<path d="M42.5055 24.5974C39.9435 27.1294 36.4735 26.1174 36.4735 26.1174C36.4735 26.1174 35.5655 22.5734 38.1295 20.0374C40.6895 17.5054 44.1615 18.5174 44.1615 18.5174C44.1615 18.5174 45.0695 22.0614 42.5055 24.5974ZM35.7855 37.9694C32.7855 36.8194 32.3175 33.5894 32.3175 33.5894C32.3175 33.5894 34.8515 31.5134 37.8515 32.6654C40.8515 33.8154 41.3175 37.0454 41.3175 37.0454C41.3175 37.0454 38.7855 39.1214 35.7855 37.9694ZM12.8515 37.9694C15.8515 36.8194 16.3175 33.5894 16.3175 33.5894C16.3175 33.5894 13.7835 31.5134 10.7835 32.6654C7.78347 33.8154 7.31747 37.0454 7.31747 37.0454C7.31747 37.0454 9.85147 39.1214 12.8515 37.9694ZM6.12947 24.5974C8.69147 27.1294 12.1615 26.1174 12.1615 26.1174C12.1615 26.1174 13.0695 22.5734 10.5055 20.0374C7.94347 17.5074 4.47347 18.5174 4.47347 18.5174C4.47347 18.5174 3.56547 22.0614 6.12947 24.5974ZM11.2775 10.7774C10.6935 14.1094 13.3175 16.3174 13.3175 16.3174C13.3175 16.3174 16.5235 15.1914 17.1075 11.8574C17.6915 8.52538 15.0675 6.31738 15.0675 6.31738C15.0675 6.31738 11.8615 7.44338 11.2775 10.7774Z" stroke="white" stroke-width="3" stroke-linecap="round" stroke-linejoin="round"/>
</svg>
